<svg width="105" height="103" viewBox="0 0 105 103" fill="none" xmlns="http://www.w3.org/2000/svg">
<path d="M55.1695 101.503C81.8147 101.503 103.569 80.3817 103.569 54.1365C103.569 27.8916 81.8147 6.76965 55.1695 6.76965C28.5246 6.76965 6.76953 27.8916 6.76953 54.1365C6.76953 80.3817 28.5246 101.503 55.1695 101.503Z" fill="white" stroke="black" stroke-width="1.5625"/>
<path d="M49.1812 95.5148C75.8264 95.5148 97.5811 74.3932 97.5811 48.148C97.5811 21.9032 75.8264 0.78125 49.1812 0.78125C22.5363 0.78125 0.78125 21.9032 0.78125 48.148C0.78125 74.3932 22.5363 95.5148 49.1812 95.5148Z" fill="#FFDD55" stroke="black" stroke-width="1.5625"/>
<path d="M48.7963 68.3989C45.127 68.3989 41.5857 67.9509 38.1723 67.0549C34.8017 66.1163 32.0497 64.9216 29.9163 63.4709L34.0763 54.1269C36.0817 55.4069 38.3857 56.4736 40.9883 57.3269C43.6337 58.1376 46.2577 58.5429 48.8603 58.5429C50.6097 58.5429 52.0177 58.3936 53.0843 58.0949C54.151 57.7536 54.919 57.3269 55.3883 56.8149C55.9003 56.2603 56.1563 55.6203 56.1563 54.8949C56.1563 53.8709 55.687 53.0603 54.7483 52.4629C53.8097 51.8656 52.5937 51.3749 51.1003 50.9909C49.607 50.6069 47.943 50.2229 46.1083 49.8389C44.3163 49.4549 42.503 48.9643 40.6683 48.3669C38.8763 47.7696 37.2337 47.0016 35.7403 46.0629C34.247 45.0816 33.031 43.8229 32.0923 42.2869C31.1537 40.7083 30.6843 38.7243 30.6843 36.3349C30.6843 33.6469 31.4097 31.2149 32.8603 29.0389C34.3537 26.8629 36.5723 25.1136 39.5163 23.7909C42.4603 22.4683 46.1297 21.8069 50.5243 21.8069C53.4683 21.8069 56.3483 22.1483 59.1643 22.8309C62.023 23.4709 64.5617 24.4309 66.7803 25.7109L62.8763 35.1189C60.743 33.9669 58.631 33.1136 56.5403 32.5589C54.4497 31.9616 52.423 31.6629 50.4603 31.6629C48.711 31.6629 47.303 31.8549 46.2363 32.2389C45.1697 32.5803 44.4017 33.0496 43.9323 33.6469C43.463 34.2443 43.2283 34.9269 43.2283 35.6949C43.2283 36.6763 43.6763 37.4656 44.5723 38.0629C45.511 38.6176 46.727 39.0869 48.2203 39.4709C49.7563 39.8123 51.4203 40.1749 53.2123 40.5589C55.047 40.9429 56.8603 41.4336 58.6523 42.0309C60.487 42.5856 62.151 43.3536 63.6443 44.3349C65.1377 45.2736 66.3323 46.5323 67.2283 48.1109C68.167 49.6469 68.6363 51.5883 68.6363 53.9349C68.6363 56.5376 67.8897 58.9483 66.3963 61.1669C64.9457 63.3429 62.7483 65.0923 59.8043 66.4149C56.903 67.7376 53.2337 68.3989 48.7963 68.3989Z" fill="#18191F"/>
</svg>
